<mxfile host="app.diagrams.net" agent="Mozilla/5.0 (Windows NT 10.0; Win64; x64) AppleWebKit/537.36 (KHTML, like Gecko) Chrome/139.0.0.0 Safari/537.36" version="28.1.2">
  <diagram name="Page-1" id="A9jA2gEZG5VGSnpE-niy">
    <mxGraphModel dx="1621" dy="871" grid="1" gridSize="10" guides="1" tooltips="1" connect="1" arrows="1" fold="1" page="1" pageScale="1" pageWidth="1100" pageHeight="850" math="0" shadow="0">
      <root>
        <mxCell id="0" />
        <mxCell id="1" parent="0" />
        <mxCell id="WQZsSQplvxRrFOOx9UGh-1" value="U1" style="rounded=0;whiteSpace=wrap;html=1;" vertex="1" parent="1">
          <mxGeometry x="360" y="120" width="120" height="120" as="geometry" />
        </mxCell>
        <mxCell id="WQZsSQplvxRrFOOx9UGh-2" value="U2" style="rounded=0;whiteSpace=wrap;html=1;" vertex="1" parent="1">
          <mxGeometry x="720" y="120" width="120" height="120" as="geometry" />
        </mxCell>
        <mxCell id="WQZsSQplvxRrFOOx9UGh-3" value="U10" style="rounded=0;whiteSpace=wrap;html=1;" vertex="1" parent="1">
          <mxGeometry x="120" y="320" width="80" height="80" as="geometry" />
        </mxCell>
        <mxCell id="WQZsSQplvxRrFOOx9UGh-4" value="U18" style="rounded=0;whiteSpace=wrap;html=1;dashed=1;dashPattern=8 8;" vertex="1" parent="1">
          <mxGeometry x="240" y="280" width="80" height="80" as="geometry" />
        </mxCell>
        <mxCell id="WQZsSQplvxRrFOOx9UGh-19" style="edgeStyle=orthogonalEdgeStyle;rounded=0;orthogonalLoop=1;jettySize=auto;html=1;exitX=0.5;exitY=0;exitDx=0;exitDy=0;entryX=0.5;entryY=1;entryDx=0;entryDy=0;" edge="1" parent="1" source="WQZsSQplvxRrFOOx9UGh-5" target="WQZsSQplvxRrFOOx9UGh-3">
          <mxGeometry relative="1" as="geometry" />
        </mxCell>
        <mxCell id="WQZsSQplvxRrFOOx9UGh-5" value="U7" style="rounded=0;whiteSpace=wrap;html=1;" vertex="1" parent="1">
          <mxGeometry x="120" y="480" width="80" height="80" as="geometry" />
        </mxCell>
        <mxCell id="WQZsSQplvxRrFOOx9UGh-20" style="edgeStyle=orthogonalEdgeStyle;rounded=0;orthogonalLoop=1;jettySize=auto;html=1;exitX=0.5;exitY=0;exitDx=0;exitDy=0;entryX=0.5;entryY=1;entryDx=0;entryDy=0;" edge="1" parent="1" source="WQZsSQplvxRrFOOx9UGh-6" target="WQZsSQplvxRrFOOx9UGh-4">
          <mxGeometry relative="1" as="geometry" />
        </mxCell>
        <mxCell id="WQZsSQplvxRrFOOx9UGh-6" value="U17" style="rounded=0;whiteSpace=wrap;html=1;dashed=1;dashPattern=8 8;" vertex="1" parent="1">
          <mxGeometry x="240" y="440" width="80" height="80" as="geometry" />
        </mxCell>
        <mxCell id="WQZsSQplvxRrFOOx9UGh-7" value="U6" style="rounded=0;whiteSpace=wrap;html=1;" vertex="1" parent="1">
          <mxGeometry x="360" y="320" width="80" height="80" as="geometry" />
        </mxCell>
        <mxCell id="WQZsSQplvxRrFOOx9UGh-8" value="U13" style="rounded=0;whiteSpace=wrap;html=1;dashed=1;dashPattern=8 8;" vertex="1" parent="1">
          <mxGeometry x="480" y="280" width="80" height="80" as="geometry" />
        </mxCell>
        <mxCell id="WQZsSQplvxRrFOOx9UGh-21" style="edgeStyle=orthogonalEdgeStyle;rounded=0;orthogonalLoop=1;jettySize=auto;html=1;exitX=0.5;exitY=0;exitDx=0;exitDy=0;entryX=0.5;entryY=1;entryDx=0;entryDy=0;" edge="1" parent="1" source="WQZsSQplvxRrFOOx9UGh-9" target="WQZsSQplvxRrFOOx9UGh-7">
          <mxGeometry relative="1" as="geometry" />
        </mxCell>
        <mxCell id="WQZsSQplvxRrFOOx9UGh-9" value="U3" style="rounded=0;whiteSpace=wrap;html=1;" vertex="1" parent="1">
          <mxGeometry x="360" y="480" width="80" height="80" as="geometry" />
        </mxCell>
        <mxCell id="WQZsSQplvxRrFOOx9UGh-22" style="edgeStyle=orthogonalEdgeStyle;rounded=0;orthogonalLoop=1;jettySize=auto;html=1;exitX=0.5;exitY=0;exitDx=0;exitDy=0;entryX=0.5;entryY=1;entryDx=0;entryDy=0;" edge="1" parent="1" source="WQZsSQplvxRrFOOx9UGh-10" target="WQZsSQplvxRrFOOx9UGh-8">
          <mxGeometry relative="1" as="geometry" />
        </mxCell>
        <mxCell id="WQZsSQplvxRrFOOx9UGh-10" value="U11" style="rounded=0;whiteSpace=wrap;html=1;dashed=1;dashPattern=8 8;" vertex="1" parent="1">
          <mxGeometry x="480" y="440" width="80" height="80" as="geometry" />
        </mxCell>
        <mxCell id="WQZsSQplvxRrFOOx9UGh-11" value="U6" style="rounded=0;whiteSpace=wrap;html=1;" vertex="1" parent="1">
          <mxGeometry x="760" y="320" width="80" height="80" as="geometry" />
        </mxCell>
        <mxCell id="WQZsSQplvxRrFOOx9UGh-12" value="U13" style="rounded=0;whiteSpace=wrap;html=1;dashed=1;dashPattern=8 8;" vertex="1" parent="1">
          <mxGeometry x="640" y="280" width="80" height="80" as="geometry" />
        </mxCell>
        <mxCell id="WQZsSQplvxRrFOOx9UGh-24" style="edgeStyle=orthogonalEdgeStyle;rounded=0;orthogonalLoop=1;jettySize=auto;html=1;exitX=0.5;exitY=0;exitDx=0;exitDy=0;entryX=0.5;entryY=1;entryDx=0;entryDy=0;" edge="1" parent="1" source="WQZsSQplvxRrFOOx9UGh-13" target="WQZsSQplvxRrFOOx9UGh-11">
          <mxGeometry relative="1" as="geometry" />
        </mxCell>
        <mxCell id="WQZsSQplvxRrFOOx9UGh-13" value="U3" style="rounded=0;whiteSpace=wrap;html=1;" vertex="1" parent="1">
          <mxGeometry x="760" y="480" width="80" height="80" as="geometry" />
        </mxCell>
        <mxCell id="WQZsSQplvxRrFOOx9UGh-23" style="edgeStyle=orthogonalEdgeStyle;rounded=0;orthogonalLoop=1;jettySize=auto;html=1;exitX=0.5;exitY=0;exitDx=0;exitDy=0;entryX=0.5;entryY=1;entryDx=0;entryDy=0;" edge="1" parent="1" source="WQZsSQplvxRrFOOx9UGh-14" target="WQZsSQplvxRrFOOx9UGh-12">
          <mxGeometry relative="1" as="geometry" />
        </mxCell>
        <mxCell id="WQZsSQplvxRrFOOx9UGh-14" value="U11" style="rounded=0;whiteSpace=wrap;html=1;dashed=1;dashPattern=8 8;" vertex="1" parent="1">
          <mxGeometry x="640" y="440" width="80" height="80" as="geometry" />
        </mxCell>
        <mxCell id="WQZsSQplvxRrFOOx9UGh-15" value="U6" style="rounded=0;whiteSpace=wrap;html=1;" vertex="1" parent="1">
          <mxGeometry x="1000" y="320" width="80" height="80" as="geometry" />
        </mxCell>
        <mxCell id="WQZsSQplvxRrFOOx9UGh-16" value="U13" style="rounded=0;whiteSpace=wrap;html=1;dashed=1;dashPattern=8 8;" vertex="1" parent="1">
          <mxGeometry x="880" y="280" width="80" height="80" as="geometry" />
        </mxCell>
        <mxCell id="WQZsSQplvxRrFOOx9UGh-26" style="edgeStyle=orthogonalEdgeStyle;rounded=0;orthogonalLoop=1;jettySize=auto;html=1;exitX=0.5;exitY=0;exitDx=0;exitDy=0;" edge="1" parent="1" source="WQZsSQplvxRrFOOx9UGh-17" target="WQZsSQplvxRrFOOx9UGh-15">
          <mxGeometry relative="1" as="geometry" />
        </mxCell>
        <mxCell id="WQZsSQplvxRrFOOx9UGh-17" value="U3" style="rounded=0;whiteSpace=wrap;html=1;" vertex="1" parent="1">
          <mxGeometry x="1000" y="480" width="80" height="80" as="geometry" />
        </mxCell>
        <mxCell id="WQZsSQplvxRrFOOx9UGh-25" style="edgeStyle=orthogonalEdgeStyle;rounded=0;orthogonalLoop=1;jettySize=auto;html=1;exitX=0.5;exitY=0;exitDx=0;exitDy=0;entryX=0.5;entryY=1;entryDx=0;entryDy=0;" edge="1" parent="1" source="WQZsSQplvxRrFOOx9UGh-18" target="WQZsSQplvxRrFOOx9UGh-16">
          <mxGeometry relative="1" as="geometry" />
        </mxCell>
        <mxCell id="WQZsSQplvxRrFOOx9UGh-18" value="U11" style="rounded=0;whiteSpace=wrap;html=1;dashed=1;dashPattern=8 8;" vertex="1" parent="1">
          <mxGeometry x="880" y="440" width="80" height="80" as="geometry" />
        </mxCell>
        <mxCell id="WQZsSQplvxRrFOOx9UGh-27" value="FE#1&lt;div&gt;16-31&lt;/div&gt;" style="rounded=0;whiteSpace=wrap;html=1;dashed=1;dashPattern=8 8;" vertex="1" parent="1">
          <mxGeometry x="240" y="560" width="80" height="40" as="geometry" />
        </mxCell>
        <mxCell id="WQZsSQplvxRrFOOx9UGh-28" value="FE#0&lt;div&gt;15-0&lt;/div&gt;" style="rounded=0;whiteSpace=wrap;html=1;" vertex="1" parent="1">
          <mxGeometry x="120" y="600" width="80" height="40" as="geometry" />
        </mxCell>
        <mxCell id="WQZsSQplvxRrFOOx9UGh-29" value="FE#3&lt;div&gt;&lt;span style=&quot;background-color: transparent; color: light-dark(rgb(0, 0, 0), rgb(255, 255, 255));&quot;&gt;63-48&lt;/span&gt;&lt;/div&gt;" style="rounded=0;whiteSpace=wrap;html=1;" vertex="1" parent="1">
          <mxGeometry x="360" y="600" width="80" height="40" as="geometry" />
        </mxCell>
        <mxCell id="WQZsSQplvxRrFOOx9UGh-30" value="FE#2&lt;div&gt;32-47&lt;/div&gt;" style="rounded=0;whiteSpace=wrap;html=1;dashed=1;dashPattern=8 8;" vertex="1" parent="1">
          <mxGeometry x="480" y="560" width="80" height="40" as="geometry" />
        </mxCell>
        <mxCell id="WQZsSQplvxRrFOOx9UGh-31" value="FE#4&lt;div&gt;79-64&lt;/div&gt;" style="rounded=0;whiteSpace=wrap;html=1;" vertex="1" parent="1">
          <mxGeometry x="760" y="600" width="80" height="40" as="geometry" />
        </mxCell>
        <mxCell id="WQZsSQplvxRrFOOx9UGh-32" value="FE#7&lt;div&gt;127-112&lt;/div&gt;" style="rounded=0;whiteSpace=wrap;html=1;" vertex="1" parent="1">
          <mxGeometry x="1000" y="600" width="80" height="40" as="geometry" />
        </mxCell>
        <mxCell id="WQZsSQplvxRrFOOx9UGh-33" value="FE#5&lt;div&gt;80 - 95&lt;/div&gt;" style="rounded=0;whiteSpace=wrap;html=1;dashed=1;dashPattern=8 8;" vertex="1" parent="1">
          <mxGeometry x="640" y="560" width="80" height="40" as="geometry" />
        </mxCell>
        <mxCell id="WQZsSQplvxRrFOOx9UGh-34" value="FE#6&lt;div&gt;96-112&lt;/div&gt;" style="rounded=0;whiteSpace=wrap;html=1;dashed=1;dashPattern=8 8;" vertex="1" parent="1">
          <mxGeometry x="880" y="560" width="80" height="40" as="geometry" />
        </mxCell>
        <mxCell id="WQZsSQplvxRrFOOx9UGh-35" value="" style="ellipse;whiteSpace=wrap;html=1;aspect=fixed;fillColor=#000000;" vertex="1" parent="1">
          <mxGeometry x="120" y="550" width="10" height="10" as="geometry" />
        </mxCell>
        <mxCell id="WQZsSQplvxRrFOOx9UGh-36" value="" style="ellipse;whiteSpace=wrap;html=1;aspect=fixed;fillColor=#000000;" vertex="1" parent="1">
          <mxGeometry x="360" y="550" width="10" height="10" as="geometry" />
        </mxCell>
        <mxCell id="WQZsSQplvxRrFOOx9UGh-37" value="" style="ellipse;whiteSpace=wrap;html=1;aspect=fixed;fillColor=#000000;" vertex="1" parent="1">
          <mxGeometry x="760" y="550" width="10" height="10" as="geometry" />
        </mxCell>
        <mxCell id="WQZsSQplvxRrFOOx9UGh-38" value="" style="ellipse;whiteSpace=wrap;html=1;aspect=fixed;fillColor=#000000;" vertex="1" parent="1">
          <mxGeometry x="1000" y="550" width="10" height="10" as="geometry" />
        </mxCell>
        <mxCell id="WQZsSQplvxRrFOOx9UGh-39" value="" style="ellipse;whiteSpace=wrap;html=1;aspect=fixed;fillColor=#000000;" vertex="1" parent="1">
          <mxGeometry x="310" y="510" width="10" height="10" as="geometry" />
        </mxCell>
        <mxCell id="WQZsSQplvxRrFOOx9UGh-40" value="" style="ellipse;whiteSpace=wrap;html=1;aspect=fixed;fillColor=#000000;" vertex="1" parent="1">
          <mxGeometry x="550" y="510" width="10" height="10" as="geometry" />
        </mxCell>
        <mxCell id="WQZsSQplvxRrFOOx9UGh-41" value="" style="ellipse;whiteSpace=wrap;html=1;aspect=fixed;fillColor=#000000;" vertex="1" parent="1">
          <mxGeometry x="950" y="510" width="10" height="10" as="geometry" />
        </mxCell>
        <mxCell id="WQZsSQplvxRrFOOx9UGh-42" value="" style="ellipse;whiteSpace=wrap;html=1;aspect=fixed;fillColor=#000000;" vertex="1" parent="1">
          <mxGeometry x="710" y="510" width="10" height="10" as="geometry" />
        </mxCell>
      </root>
    </mxGraphModel>
  </diagram>
</mxfile>
